<?xml version="1.0" encoding="UTF-8"?><svg xmlns="http://www.w3.org/2000/svg" xmlns:xlink="http://www.w3.org/1999/xlink" fill-opacity="1" color-rendering="auto" color-interpolation="auto" text-rendering="auto" stroke="black" stroke-linecap="square" width="1148" stroke-miterlimit="10" shape-rendering="auto" stroke-opacity="1" fill="black" stroke-dasharray="none" font-weight="normal" stroke-width="1" height="595" font-family="'Dialog'" font-style="normal" stroke-linejoin="miter" font-size="12px" stroke-dashoffset="0" image-rendering="auto">
  <!--Generated by ySVG 2.5-->
  <defs id="genericDefs"/>
  <g>
    <g fill="white" text-rendering="geometricPrecision" shape-rendering="geometricPrecision" transform="translate(62,103)" stroke="white">
      <rect x="-62" width="1148" height="595" y="-103" clip-path="url(#clipPath2)" stroke="none"/>
    </g>
    <g fill="rgb(255,204,153)" text-rendering="geometricPrecision" shape-rendering="geometricPrecision" transform="matrix(1,0,0,1,62,103)" stroke="rgb(255,204,153)">
      <rect x="-34" width="142" height="198" y="-36" clip-path="url(#clipPath2)" stroke="none"/>
    </g>
    <g text-rendering="geometricPrecision" stroke-miterlimit="1.45" shape-rendering="geometricPrecision" font-family="sans-serif" transform="matrix(1,0,0,1,62,103)" stroke-linecap="butt">
      <text x="14.3213" xml:space="preserve" y="3.8867" clip-path="url(#clipPath2)" stroke="none">Aplicatia</text>
      <rect fill="none" x="-34" width="142" height="198" y="-36" clip-path="url(#clipPath2)"/>
    </g>
    <g fill="rgb(255,204,0)" text-rendering="geometricPrecision" shape-rendering="geometricPrecision" transform="matrix(1,0,0,1,62,103)" stroke="rgb(255,204,0)">
      <rect x="4" width="66" height="21" y="11" clip-path="url(#clipPath2)" stroke="none"/>
    </g>
    <g text-rendering="geometricPrecision" stroke-miterlimit="1.45" shape-rendering="geometricPrecision" font-family="sans-serif" transform="matrix(1,0,0,1,62,103)" stroke-linecap="butt">
      <text x="9.3174" xml:space="preserve" y="26.2139" clip-path="url(#clipPath2)" stroke="none">Conectare</text>
      <rect fill="none" x="4" width="66" height="21" y="11" clip-path="url(#clipPath2)"/>
    </g>
    <g fill="rgb(255,204,0)" text-rendering="geometricPrecision" shape-rendering="geometricPrecision" transform="matrix(1,0,0,1,62,103)" stroke="rgb(255,204,0)">
      <rect x="3" y="62" clip-path="url(#clipPath2)" width="70" rx="4" ry="4" height="16" stroke="none"/>
    </g>
    <g text-rendering="geometricPrecision" stroke-miterlimit="1.45" shape-rendering="geometricPrecision" font-family="sans-serif" transform="matrix(1,0,0,1,62,103)" stroke-linecap="butt">
      <text x="24.998" xml:space="preserve" y="74.7139" clip-path="url(#clipPath2)" stroke="none">Oras</text>
      <rect x="3" y="62" clip-path="url(#clipPath2)" fill="none" width="70" rx="4" ry="4" height="16"/>
    </g>
    <g fill="rgb(255,204,0)" text-rendering="geometricPrecision" shape-rendering="geometricPrecision" transform="matrix(1,0,0,1,62,103)" stroke="rgb(255,204,0)">
      <rect x="0" y="93" clip-path="url(#clipPath2)" width="76" rx="4" ry="4" height="16" stroke="none"/>
    </g>
    <g text-rendering="geometricPrecision" stroke-miterlimit="1.45" shape-rendering="geometricPrecision" font-family="sans-serif" transform="matrix(1,0,0,1,62,103)" stroke-linecap="butt">
      <text x="6.6436" xml:space="preserve" y="105.7139" clip-path="url(#clipPath2)" stroke="none">Coordonate</text>
      <rect x="0" y="93" clip-path="url(#clipPath2)" fill="none" width="76" rx="4" ry="4" height="16"/>
    </g>
    <g fill="rgb(255,153,204)" text-rendering="geometricPrecision" shape-rendering="geometricPrecision" transform="matrix(1,0,0,1,62,103)" stroke="rgb(255,153,204)">
      <path d="M-47 233 L224 233 L224 248 L239 248 L239 462.6667 L-47 462.6667 Z" stroke="none" clip-path="url(#clipPath2)"/>
      <path fill="white" d="M224 233 L224 248 L239 248 Z" clip-path="url(#clipPath2)" fill-rule="evenodd" stroke="none"/>
    </g>
    <g text-rendering="geometricPrecision" stroke-miterlimit="1.45" shape-rendering="geometricPrecision" transform="matrix(1,0,0,1,62,103)" stroke-linecap="butt">
      <path fill="none" d="M-47 233 L224 233 L224 248 L239 248 L239 462.6667 L-47 462.6667 Z" clip-path="url(#clipPath2)"/>
      <path fill="none" d="M224 233 L224 248 L239 248 Z" clip-path="url(#clipPath2)" fill-rule="evenodd"/>
      <text x="-34.2832" xml:space="preserve" y="264.3402" clip-path="url(#clipPath2)" font-family="sans-serif" stroke="none">Fiecare Use Case(Oras, Coordonate )</text>
      <text x="-34.2832" xml:space="preserve" y="279.0414" clip-path="url(#clipPath2)" font-family="sans-serif" stroke="none">va avea un cod ce va reprezenta tipul</text>
      <text x="-34.2832" xml:space="preserve" y="293.7425" clip-path="url(#clipPath2)" font-family="sans-serif" stroke="none"> de input si un cod ce va reprezenta tipul</text>
      <text x="-34.2832" xml:space="preserve" y="308.4437" clip-path="url(#clipPath2)" font-family="sans-serif" stroke="none"> de output. </text>
      <text x="-34.2832" xml:space="preserve" y="323.1449" clip-path="url(#clipPath2)" font-family="sans-serif" stroke="none">Aceste doua coduri vor fi trimise odata cu</text>
      <text x="-34.2832" xml:space="preserve" y="337.846" clip-path="url(#clipPath2)" font-family="sans-serif" stroke="none"> trimiterea informatiilor(Oras, Coordonate) </text>
      <text x="-34.2832" xml:space="preserve" y="352.5472" clip-path="url(#clipPath2)" font-family="sans-serif" stroke="none"> </text>
      <text x="-34.2832" xml:space="preserve" y="367.2484" clip-path="url(#clipPath2)" font-family="sans-serif" stroke="none">EX1:</text>
      <text x="-34.2832" xml:space="preserve" y="381.9496" clip-path="url(#clipPath2)" font-family="sans-serif" stroke="none">{"codInput": 100, "Input":Iasi, "codOutput":200"}</text>
      <text x="-34.2832" xml:space="preserve" y="396.6507" clip-path="url(#clipPath2)" font-family="sans-serif" stroke="none">EX2:</text>
      <text x="-34.2832" xml:space="preserve" y="411.3519" clip-path="url(#clipPath2)" font-family="sans-serif" stroke="none">{"codInput": 101, "Input":{"coordonate":{</text>
      <text x="-34.2832" xml:space="preserve" y="426.0531" clip-path="url(#clipPath2)" font-family="sans-serif" stroke="none">"latitudine":45° 00' 00'', "longitudine":23° 15' 00''},</text>
      <text x="-34.2832" xml:space="preserve" y="440.7542" clip-path="url(#clipPath2)" font-family="sans-serif" stroke="none">}"codOutput":201"}</text>
    </g>
    <g fill="silver" text-rendering="geometricPrecision" shape-rendering="geometricPrecision" transform="matrix(1,0,0,1,62,103)" stroke="silver">
      <rect x="286.1766" y="-87.5" clip-path="url(#clipPath2)" width="579" rx="4" ry="4" height="467.3333" stroke="none"/>
    </g>
    <g text-rendering="geometricPrecision" stroke-miterlimit="1.45" shape-rendering="geometricPrecision" font-family="sans-serif" transform="matrix(1,0,0,1,62,103)" stroke-linecap="butt">
      <text x="551.0027" xml:space="preserve" y="-43.9656" clip-path="url(#clipPath2)" stroke="none">SERVER</text>
      <rect x="286.1766" y="-87.5" clip-path="url(#clipPath2)" fill="none" width="579" rx="4" ry="4" height="467.3333"/>
    </g>
    <g fill="rgb(255,204,0)" text-rendering="geometricPrecision" shape-rendering="geometricPrecision" transform="matrix(1,0,0,1,62,103)" stroke="rgb(255,204,0)">
      <rect x="641.1766" width="202" height="125" y="-34" clip-path="url(#clipPath2)" stroke="none"/>
    </g>
    <g text-rendering="geometricPrecision" stroke-miterlimit="1.45" shape-rendering="geometricPrecision" font-family="sans-serif" transform="matrix(1,0,0,1,62,103)" stroke-linecap="butt">
      <text x="657.7928" xml:space="preserve" y="-18.2402" clip-path="url(#clipPath2)" stroke="none">I.-Decodifica JSON</text>
      <text x="657.7928" xml:space="preserve" y="-3.5391" clip-path="url(#clipPath2)" stroke="none">  -Obtine:</text>
      <text x="657.7928" xml:space="preserve" y="11.1621" clip-path="url(#clipPath2)" stroke="none">  +int 100 (cod input)</text>
      <text x="657.7928" xml:space="preserve" y="25.8633" clip-path="url(#clipPath2)" stroke="none">  +String Iasi</text>
      <text x="657.7928" xml:space="preserve" y="40.5645" clip-path="url(#clipPath2)" stroke="none">  +int 200 (cod output)</text>
      <text x="657.7928" xml:space="preserve" y="55.2656" clip-path="url(#clipPath2)" stroke="none">Se trimite codul de input, output</text>
      <text x="657.7928" xml:space="preserve" y="69.9668" clip-path="url(#clipPath2)" stroke="none">catre algoritmul de detectie a</text>
      <text x="657.7928" xml:space="preserve" y="84.668" clip-path="url(#clipPath2)" stroke="none">secventei de calculatoare</text>
      <rect fill="none" x="641.1766" width="202" height="125" y="-34" clip-path="url(#clipPath2)"/>
    </g>
    <g fill="rgb(255,153,204)" text-rendering="geometricPrecision" shape-rendering="geometricPrecision" transform="matrix(1,0,0,1,62,103)" stroke="rgb(255,153,204)">
      <path d="M583.4266 404.6667 L794.4266 404.6667 L794.4266 419.6667 L809.4266 419.6667 L809.4266 462.6667 L583.4266 462.6667 Z" stroke="none" clip-path="url(#clipPath2)"/>
      <path fill="white" d="M794.4266 404.6667 L794.4266 419.6667 L809.4266 419.6667 Z" clip-path="url(#clipPath2)" fill-rule="evenodd" stroke="none"/>
    </g>
    <g text-rendering="geometricPrecision" stroke-miterlimit="1.45" shape-rendering="geometricPrecision" transform="matrix(1,0,0,1,62,103)" stroke-linecap="butt">
      <path fill="none" d="M583.4266 404.6667 L794.4266 404.6667 L794.4266 419.6667 L809.4266 419.6667 L809.4266 462.6667 L583.4266 462.6667 Z" clip-path="url(#clipPath2)"/>
      <path fill="none" d="M794.4266 404.6667 L794.4266 419.6667 L809.4266 419.6667 Z" clip-path="url(#clipPath2)" fill-rule="evenodd"/>
      <text x="596.0408" xml:space="preserve" y="423.6794" clip-path="url(#clipPath2)" font-family="sans-serif" stroke="none">Secventa de calculatoare reprezinat</text>
      <text x="596.0408" xml:space="preserve" y="438.3805" clip-path="url(#clipPath2)" font-family="sans-serif" stroke="none">o lista ordonata cu PC-urile ce trebuie</text>
      <text x="596.0408" xml:space="preserve" y="453.0817" clip-path="url(#clipPath2)" font-family="sans-serif" stroke="none">apelate pt a obtine outputul dorit.</text>
    </g>
    <g fill="rgb(255,204,0)" text-rendering="geometricPrecision" shape-rendering="geometricPrecision" transform="matrix(1,0,0,1,62,103)" stroke="rgb(255,204,0)">
      <rect x="641.1766" width="202" height="50" y="137" clip-path="url(#clipPath2)" stroke="none"/>
    </g>
    <g text-rendering="geometricPrecision" stroke-miterlimit="1.45" shape-rendering="geometricPrecision" font-family="sans-serif" transform="matrix(1,0,0,1,62,103)" stroke-linecap="butt">
      <text x="667.8094" xml:space="preserve" y="152.0127" clip-path="url(#clipPath2)" stroke="none">II.Algoritm</text>
      <text x="667.8094" xml:space="preserve" y="166.7139" clip-path="url(#clipPath2)" stroke="none">Algoritmul determina lista</text>
      <text x="667.8094" xml:space="preserve" y="181.415" clip-path="url(#clipPath2)" stroke="none">ArrayList&lt;Calculatoare&gt; PC</text>
      <rect fill="none" x="641.1766" width="202" height="50" y="137" clip-path="url(#clipPath2)"/>
    </g>
    <g fill="rgb(255,153,204)" text-rendering="geometricPrecision" shape-rendering="geometricPrecision" transform="matrix(1,0,0,1,62,103)" stroke="rgb(255,153,204)">
      <path d="M917.3531 77 L1055.3531 77 L1055.3531 92 L1070.3531 92 L1070.3531 227 L917.3531 227 Z" stroke="none" clip-path="url(#clipPath2)"/>
      <path fill="white" d="M1055.3531 77 L1055.3531 92 L1070.3531 92 Z" clip-path="url(#clipPath2)" fill-rule="evenodd" stroke="none"/>
    </g>
    <g text-rendering="geometricPrecision" stroke-miterlimit="1.45" shape-rendering="geometricPrecision" transform="matrix(1,0,0,1,62,103)" stroke-linecap="butt">
      <path fill="none" d="M917.3531 77 L1055.3531 77 L1055.3531 92 L1070.3531 92 L1070.3531 227 L917.3531 227 Z" clip-path="url(#clipPath2)"/>
      <path fill="none" d="M1055.3531 77 L1055.3531 92 L1070.3531 92 Z" clip-path="url(#clipPath2)" fill-rule="evenodd"/>
      <text x="921.484" xml:space="preserve" y="97.9092" clip-path="url(#clipPath2)" font-family="sans-serif" stroke="none">Schita Clasa Calculatoare: </text>
      <text x="921.484" xml:space="preserve" y="112.6104" clip-path="url(#clipPath2)" font-family="sans-serif" stroke="none">class Calculatoare{</text>
      <text x="921.484" xml:space="preserve" y="127.3115" clip-path="url(#clipPath2)" font-family="sans-serif" stroke="none">   Port int;</text>
      <text x="921.484" xml:space="preserve" y="142.0127" clip-path="url(#clipPath2)" font-family="sans-serif" stroke="none">   IP String;</text>
      <text x="921.484" xml:space="preserve" y="156.7139" clip-path="url(#clipPath2)" font-family="sans-serif" stroke="none">   setIp();</text>
      <text x="921.484" xml:space="preserve" y="171.415" clip-path="url(#clipPath2)" font-family="sans-serif" stroke="none">   setPort();</text>
      <text x="921.484" xml:space="preserve" y="186.1162" clip-path="url(#clipPath2)" font-family="sans-serif" stroke="none">   getIp();</text>
      <text x="921.484" xml:space="preserve" y="200.8174" clip-path="url(#clipPath2)" font-family="sans-serif" stroke="none">   getPort();</text>
      <text x="921.484" xml:space="preserve" y="215.5186" clip-path="url(#clipPath2)" font-family="sans-serif" stroke="none">}</text>
    </g>
    <g fill="rgb(255,102,0)" text-rendering="geometricPrecision" shape-rendering="geometricPrecision" transform="matrix(1,0,0,1,62,103)" stroke="rgb(255,102,0)">
      <rect x="292.1766" width="281" height="221" y="-34" clip-path="url(#clipPath2)" stroke="none"/>
    </g>
    <g text-rendering="geometricPrecision" stroke-miterlimit="1.45" shape-rendering="geometricPrecision" font-family="sans-serif" transform="matrix(1,0,0,1,62,103)" stroke-linecap="butt">
      <text x="294.9432" xml:space="preserve" y="-15.9355" clip-path="url(#clipPath2)" stroke="none">S-&gt;Clas Server</text>
      <text x="294.9432" xml:space="preserve" y="-1.2344" clip-path="url(#clipPath2)" stroke="none">0.Conexiune noua</text>
      <text x="294.9432" xml:space="preserve" y="13.4668" clip-path="url(#clipPath2)" stroke="none">1.Creaza thred</text>
      <text x="294.9432" xml:space="preserve" y="28.168" clip-path="url(#clipPath2)" stroke="none">2.Primeste datele de la aplicatie,</text>
      <text x="294.9432" xml:space="preserve" y="42.8691" clip-path="url(#clipPath2)" stroke="none">3.Acceseaza Clasa de Decodificare,</text>
      <text x="294.9432" xml:space="preserve" y="57.5703" clip-path="url(#clipPath2)" stroke="none">Primeste codInput, codOutput, date</text>
      <text x="294.9432" xml:space="preserve" y="72.2715" clip-path="url(#clipPath2)" stroke="none">4.acceseaza algoritmul(int CodI, int CodO)</text>
      <text x="294.9432" xml:space="preserve" y="86.9727" clip-path="url(#clipPath2)" stroke="none">Primeste ArrayList&lt;Calculatoare&gt;</text>
      <text x="294.9432" xml:space="preserve" y="101.6738" clip-path="url(#clipPath2)" stroke="none">5.acceseaza dirijorul(ArrayList&lt;PC&gt;,String Input)</text>
      <text x="294.9432" xml:space="preserve" y="116.375" clip-path="url(#clipPath2)" stroke="none">Primeste output dirijor</text>
      <text x="294.9432" xml:space="preserve" y="131.0762" clip-path="url(#clipPath2)" stroke="none">6.apeleaza CodificareJson(int CodOut,String OutDj)</text>
      <text x="294.9432" xml:space="preserve" y="145.7773" clip-path="url(#clipPath2)" stroke="none">primeste output</text>
      <text x="294.9432" xml:space="preserve" y="160.4785" clip-path="url(#clipPath2)" stroke="none">7.returneaza rezultat aplicatie</text>
      <text x="294.9432" xml:space="preserve" y="175.1797" clip-path="url(#clipPath2)" stroke="none">8.close thread</text>
      <rect fill="none" x="292.1766" width="281" height="221" y="-34" clip-path="url(#clipPath2)"/>
    </g>
    <g fill="rgb(255,204,0)" text-rendering="geometricPrecision" shape-rendering="geometricPrecision" transform="matrix(1,0,0,1,62,103)" stroke="rgb(255,204,0)">
      <rect x="327.9266" width="209.5" height="58" y="227" clip-path="url(#clipPath2)" stroke="none"/>
    </g>
    <g text-rendering="geometricPrecision" stroke-miterlimit="1.45" shape-rendering="geometricPrecision" font-family="sans-serif" transform="matrix(1,0,0,1,62,103)" stroke-linecap="butt">
      <text x="384.6561" xml:space="preserve" y="260.7139" clip-path="url(#clipPath2)" stroke="none">III. CodificareJson</text>
      <rect fill="none" x="327.9266" width="209.5" height="58" y="227" clip-path="url(#clipPath2)"/>
    </g>
    <g fill="rgb(153,204,255)" text-rendering="geometricPrecision" shape-rendering="geometricPrecision" transform="matrix(1,0,0,1,62,103)" stroke="rgb(153,204,255)">
      <rect x="597.1766" width="257" height="150" y="217" clip-path="url(#clipPath2)" stroke="none"/>
    </g>
    <g text-rendering="geometricPrecision" stroke-miterlimit="1.45" shape-rendering="geometricPrecision" font-family="sans-serif" transform="matrix(1,0,0,1,62,103)" stroke-linecap="butt">
      <text x="603.2859" xml:space="preserve" y="252.6104" clip-path="url(#clipPath2)" stroke="none">III.Dirijor</text>
      <text x="603.2859" xml:space="preserve" y="267.3115" clip-path="url(#clipPath2)" stroke="none">Dirijorul ArrayList&lt;Calculatoare&gt;, String Input</text>
      <text x="603.2859" xml:space="preserve" y="282.0127" clip-path="url(#clipPath2)" stroke="none">Inputul-&gt;reprezinta datele cu care trebuie sa</text>
      <text x="603.2859" xml:space="preserve" y="296.7139" clip-path="url(#clipPath2)" stroke="none">apeleze primul calculator din ArrayList&lt;Cal...&gt;</text>
      <text x="603.2859" xml:space="preserve" y="311.415" clip-path="url(#clipPath2)" stroke="none"> </text>
      <text x="603.2859" xml:space="preserve" y="326.1162" clip-path="url(#clipPath2)" stroke="none">Returneaza un String ce reprezinat datele de</text>
      <text x="603.2859" xml:space="preserve" y="340.8174" clip-path="url(#clipPath2)" stroke="none">la ultimul calculator din lista</text>
      <rect fill="none" x="597.1766" width="257" height="150" y="217" clip-path="url(#clipPath2)"/>
    </g>
    <g fill="rgb(153,204,0)" text-rendering="geometricPrecision" shape-rendering="geometricPrecision" transform="matrix(1,0,0,1,62,103)" stroke="rgb(153,204,0)">
      <rect x="305.0883" width="248.3383" height="85" y="289.6667" clip-path="url(#clipPath2)" stroke="none"/>
    </g>
    <g text-rendering="geometricPrecision" stroke-miterlimit="1.45" shape-rendering="geometricPrecision" font-family="sans-serif" transform="matrix(1,0,0,1,62,103)" stroke-linecap="butt">
      <text x="323.5367" xml:space="preserve" y="307.4782" clip-path="url(#clipPath2)" stroke="none">Admin</text>
      <text x="323.5367" xml:space="preserve" y="322.1794" clip-path="url(#clipPath2)" stroke="none">Apeleaza o metoda a dirijorului</text>
      <text x="323.5367" xml:space="preserve" y="336.8805" clip-path="url(#clipPath2)" stroke="none">Dirijorul trebuie sa aiba o metoda</text>
      <text x="323.5367" xml:space="preserve" y="351.5817" clip-path="url(#clipPath2)" stroke="none">prin care ii ofera adminuli calculatoarele</text>
      <text x="323.5367" xml:space="preserve" y="366.2829" clip-path="url(#clipPath2)" stroke="none">ocupate in momentul apelarii functiei</text>
      <rect fill="none" x="305.0883" width="248.3383" height="85" y="289.6667" clip-path="url(#clipPath2)"/>
    </g>
    <g text-rendering="geometricPrecision" shape-rendering="geometricPrecision" transform="matrix(1.7709,0,0,1.6185,1015.1775,27.4537)">
      <g clip-path="url(#clipPath3)">
        <svg xml:space="preserve" opacity="1" writing-mode="lr-tb" stop-color="rgb(0, 0, 0)" shape-rendering="auto" glyph-orientation-horizontal="0deg" color-profile="auto" lighting-color="rgb(255, 255, 255)" color="rgb(0, 0, 0)" font-weight="400" alignment-baseline="auto" font-style="normal" version="1.1" color-interpolation-filters="linearrgb" text-anchor="start" stroke-linecap="butt" color-interpolation="srgb" font-variant="normal" word-spacing="normal" fill-opacity="1" text-rendering="auto" clip-path="none" text-decoration="none" letter-spacing="normal" viewBox="-0.875 -0.887 41 48" glyph-orientation-vertical="auto" display="inline" font-size-adjust="none" overflow="visible" fill="rgb(0, 0, 0)" font-stretch="normal" stroke-dasharray="none" stroke-miterlimit="4" stop-opacity="1" color-rendering="auto" font-size="12" pointer-events="visiblepainted" mask="none" direction="ltr" baseline-shift="baseline" enable-background="new -0.875 -0.887 41 48" fill-rule="nonzero" image-rendering="auto" stroke-dashoffset="0" width="41px" marker-end="none" clip="auto" cursor="auto" stroke="none" filter="none" visibility="visible" kerning="auto" stroke-width="1" font-family="&quot;Arial&quot;,&quot;Helvetica&quot;,sans-serif" flood-opacity="1" clip-rule="nonzero" src="none" height="48px" unicode-bidi="normal" stroke-linejoin="miter" stroke-opacity="1" flood-color="rgb(0, 0, 0)" dominant-baseline="auto" marker-start="none" x="0px" marker-mid="none" y="0px">
<defs>
<clipPath clipPathUnits="userSpaceOnUse" id="clipPath1">
              <path d="M0 0 L1148 0 L1148 595 L0 595 L0 0 Z"/>
            </clipPath>
            <clipPath clipPathUnits="userSpaceOnUse" id="clipPath2">
              <path d="M-62 -103 L1086 -103 L1086 492 L-62 492 L-62 -103 Z"/>
            </clipPath>
            <clipPath clipPathUnits="userSpaceOnUse" id="clipPath3">
              <path d="M-573.2417 -16.9625 L75.0011 -16.9625 L75.0011 350.6629 L-573.2417 350.6629 L-573.2417 -16.9625 Z"/>
            </clipPath>
            <clipPath clipPathUnits="userSpaceOnUse" id="clipPath4">
              <path d="M-1022.5531 -368.314 L125.4469 -368.314 L125.4469 226.686 L-1022.5531 226.686 L-1022.5531 -368.314 Z"/>
            </clipPath>
          </defs>
<linearGradient gradientTransform="matrix(1 0 0 -1 -642.8008 -939.4756)" x1="642.8008" x2="682.0508" gradientUnits="userSpaceOnUse" y1="-979.1445" y2="-979.1445" id="svg1.SVGID_1_">
	<stop offset="0" style="stop-color:#3C89C9"/>
	<stop offset="0.1482" style="stop-color:#60A6DD"/>
	<stop offset="0.3113" style="stop-color:#81C1F0"/>
	<stop offset="0.4476" style="stop-color:#95D1FB"/>
	<stop offset="0.5394" style="stop-color:#9CD7FF"/>
	<stop offset="0.636" style="stop-color:#98D4FD"/>
	<stop offset="0.7293" style="stop-color:#8DCAF6"/>
	<stop offset="0.8214" style="stop-color:#79BBEB"/>
	<stop offset="0.912" style="stop-color:#5EA5DC"/>
	<stop offset="1" style="stop-color:#3C89C9"/>
</linearGradient>
<path fill="url(#svg1.SVGID_1_)" d="M19.625,36.763C8.787,36.763,0,34.888,0,32.575v10c0,2.313,8.787,4.188,19.625,4.188  c10.839,0,19.625-1.875,19.625-4.188v-10C39.25,34.888,30.464,36.763,19.625,36.763z"/>
<linearGradient gradientTransform="matrix(1 0 0 -1 -642.8008 -939.4756)" x1="642.8008" x2="682.0508" gradientUnits="userSpaceOnUse" y1="-973.1445" y2="-973.1445" id="svg1.SVGID_2_">
	<stop offset="0" style="stop-color:#9CD7FF"/>
	<stop offset="0.0039" style="stop-color:#9DD7FF"/>
	<stop offset="0.2273" style="stop-color:#BDE5FF"/>
	<stop offset="0.4138" style="stop-color:#D1EEFF"/>
	<stop offset="0.5394" style="stop-color:#D9F1FF"/>
	<stop offset="0.6155" style="stop-color:#D5EFFE"/>
	<stop offset="0.6891" style="stop-color:#C9E7FA"/>
	<stop offset="0.7617" style="stop-color:#B6DAF3"/>
	<stop offset="0.8337" style="stop-color:#9AC8EA"/>
	<stop offset="0.9052" style="stop-color:#77B0DD"/>
	<stop offset="0.9754" style="stop-color:#4D94CF"/>
	<stop offset="1" style="stop-color:#3C89C9"/>
</linearGradient>
<path fill="url(#svg1.SVGID_2_)" d="M19.625,36.763c10.839,0,19.625-1.875,19.625-4.188l-1.229-2c0,2.168-8.235,3.927-18.396,3.927  c-9.481,0-17.396-1.959-18.396-3.927l-1.229,2C0,34.888,8.787,36.763,19.625,36.763z"/>
<path fill="#3C89C9" d="M19.625,26.468c10.16,0,19.625,2.775,19.625,2.775c-0.375,2.721-5.367,5.438-19.554,5.438  c-12.125,0-18.467-2.484-19.541-4.918C-0.127,29.125,9.465,26.468,19.625,26.468z"/>
<linearGradient gradientTransform="matrix(1 0 0 -1 -642.8008 -939.4756)" x1="642.8008" x2="682.0508" gradientUnits="userSpaceOnUse" y1="-965.6948" y2="-965.6948" id="svg1.SVGID_3_">
	<stop offset="0" style="stop-color:#3C89C9"/>
	<stop offset="0.1482" style="stop-color:#60A6DD"/>
	<stop offset="0.3113" style="stop-color:#81C1F0"/>
	<stop offset="0.4476" style="stop-color:#95D1FB"/>
	<stop offset="0.5394" style="stop-color:#9CD7FF"/>
	<stop offset="0.636" style="stop-color:#98D4FD"/>
	<stop offset="0.7293" style="stop-color:#8DCAF6"/>
	<stop offset="0.8214" style="stop-color:#79BBEB"/>
	<stop offset="0.912" style="stop-color:#5EA5DC"/>
	<stop offset="1" style="stop-color:#3C89C9"/>
</linearGradient>
<path fill="url(#svg1.SVGID_3_)" d="M19.625,23.313C8.787,23.313,0,21.438,0,19.125v10c0,2.313,8.787,4.188,19.625,4.188  c10.839,0,19.625-1.875,19.625-4.188v-10C39.25,21.438,30.464,23.313,19.625,23.313z"/>
<linearGradient gradientTransform="matrix(1 0 0 -1 -642.8008 -939.4756)" x1="642.8008" x2="682.0508" gradientUnits="userSpaceOnUse" y1="-959.6948" y2="-959.6948" id="svg1.SVGID_4_">
	<stop offset="0" style="stop-color:#9CD7FF"/>
	<stop offset="0.0039" style="stop-color:#9DD7FF"/>
	<stop offset="0.2273" style="stop-color:#BDE5FF"/>
	<stop offset="0.4138" style="stop-color:#D1EEFF"/>
	<stop offset="0.5394" style="stop-color:#D9F1FF"/>
	<stop offset="0.6155" style="stop-color:#D5EFFE"/>
	<stop offset="0.6891" style="stop-color:#C9E7FA"/>
	<stop offset="0.7617" style="stop-color:#B6DAF3"/>
	<stop offset="0.8337" style="stop-color:#9AC8EA"/>
	<stop offset="0.9052" style="stop-color:#77B0DD"/>
	<stop offset="0.9754" style="stop-color:#4D94CF"/>
	<stop offset="1" style="stop-color:#3C89C9"/>
</linearGradient>
<path fill="url(#svg1.SVGID_4_)" d="M19.625,23.313c10.839,0,19.625-1.875,19.625-4.188l-1.229-2c0,2.168-8.235,3.926-18.396,3.926  c-9.481,0-17.396-1.959-18.396-3.926l-1.229,2C0,21.438,8.787,23.313,19.625,23.313z"/>
<path fill="#3C89C9" d="M19.476,13.019c10.161,0,19.625,2.775,19.625,2.775c-0.375,2.721-5.367,5.438-19.555,5.438  c-12.125,0-18.467-2.485-19.541-4.918C-0.277,15.674,9.316,13.019,19.476,13.019z"/>
<linearGradient gradientTransform="matrix(1 0 0 -1 -642.8008 -939.4756)" x1="642.8008" x2="682.0508" gradientUnits="userSpaceOnUse" y1="-952.4946" y2="-952.4946" id="svg1.SVGID_5_">
	<stop offset="0" style="stop-color:#3C89C9"/>
	<stop offset="0.1482" style="stop-color:#60A6DD"/>
	<stop offset="0.3113" style="stop-color:#81C1F0"/>
	<stop offset="0.4476" style="stop-color:#95D1FB"/>
	<stop offset="0.5394" style="stop-color:#9CD7FF"/>
	<stop offset="0.636" style="stop-color:#98D4FD"/>
	<stop offset="0.7293" style="stop-color:#8DCAF6"/>
	<stop offset="0.8214" style="stop-color:#79BBEB"/>
	<stop offset="0.912" style="stop-color:#5EA5DC"/>
	<stop offset="1" style="stop-color:#3C89C9"/>
</linearGradient>
<path fill="url(#svg1.SVGID_5_)" d="M19.625,10.113C8.787,10.113,0,8.238,0,5.925v10c0,2.313,8.787,4.188,19.625,4.188  c10.839,0,19.625-1.875,19.625-4.188v-10C39.25,8.238,30.464,10.113,19.625,10.113z"/>
<linearGradient gradientTransform="matrix(1 0 0 -1 -642.8008 -939.4756)" x1="642.8008" x2="682.0508" gradientUnits="userSpaceOnUse" y1="-946.4946" y2="-946.4946" id="svg1.SVGID_6_">
	<stop offset="0" style="stop-color:#9CD7FF"/>
	<stop offset="0.0039" style="stop-color:#9DD7FF"/>
	<stop offset="0.2273" style="stop-color:#BDE5FF"/>
	<stop offset="0.4138" style="stop-color:#D1EEFF"/>
	<stop offset="0.5394" style="stop-color:#D9F1FF"/>
	<stop offset="0.6155" style="stop-color:#D5EFFE"/>
	<stop offset="0.6891" style="stop-color:#C9E7FA"/>
	<stop offset="0.7617" style="stop-color:#B6DAF3"/>
	<stop offset="0.8337" style="stop-color:#9AC8EA"/>
	<stop offset="0.9052" style="stop-color:#77B0DD"/>
	<stop offset="0.9754" style="stop-color:#4D94CF"/>
	<stop offset="1" style="stop-color:#3C89C9"/>
</linearGradient>
<path fill="url(#svg1.SVGID_6_)" d="M19.625,10.113c10.839,0,19.625-1.875,19.625-4.188l-1.229-2c0,2.168-8.235,3.926-18.396,3.926  c-9.481,0-17.396-1.959-18.396-3.926L0,5.925C0,8.238,8.787,10.113,19.625,10.113z"/>
<linearGradient gradientTransform="matrix(1 0 0 -1 -642.8008 -939.4756)" x1="644.0293" x2="680.8223" gradientUnits="userSpaceOnUse" y1="-943.4014" y2="-943.4014" id="svg1.SVGID_7_">
	<stop offset="0" style="stop-color:#9CD7FF"/>
	<stop offset="1" style="stop-color:#3C89C9"/>
</linearGradient>
<ellipse rx="18.396" fill="url(#svg1.SVGID_7_)" ry="3.926" cx="19.625" cy="3.926"/>
<path fill="#FFFFFF" d="M31.04,45.982c0,0-4.354,0.664-7.29,0.781  c-3.125,0.125-8.952,0-8.952,0l-2.384-10.292l0.044-2.108l-1.251-1.154L9.789,23.024l-0.082-0.119L9.5,20.529l-1.65-1.254  L5.329,8.793c0,0,4.213,0.903,7.234,1.07s8.375,0.25,8.375,0.25l3,9.875l-0.25,1.313l1.063,2.168l2.312,9.645l-0.521,1.416  l1.46,1.834L31.04,45.982z" enable-background="new    " opacity="0.24"/>
</svg>
      </g>
    </g>
    <g text-rendering="geometricPrecision" stroke-miterlimit="1.45" shape-rendering="geometricPrecision" font-family="sans-serif" transform="matrix(1,0,0,1,62,103)" stroke-linecap="butt">
      <text x="979.2346" xml:space="preserve" y="-38.8034" clip-path="url(#clipPath2)" stroke="none">BD </text>
      <text x="955.551" xml:space="preserve" y="-24.1022" clip-path="url(#clipPath2)" stroke="none">Calculatoare</text>
    </g>
    <g fill="rgb(255,153,204)" text-rendering="geometricPrecision" shape-rendering="geometricPrecision" transform="matrix(1,0,0,1,62,103)" stroke="rgb(255,153,204)">
      <path d="M286.1766 399.6667 L531.3531 399.6667 L531.3531 414.6667 L546.3531 414.6667 L546.3531 475.5547 L286.1766 475.5547 Z" stroke="none" clip-path="url(#clipPath2)"/>
      <path fill="white" d="M531.3531 399.6667 L531.3531 414.6667 L546.3531 414.6667 Z" clip-path="url(#clipPath2)" fill-rule="evenodd" stroke="none"/>
    </g>
    <g text-rendering="geometricPrecision" stroke-miterlimit="1.45" shape-rendering="geometricPrecision" transform="matrix(1,0,0,1,62,103)" stroke-linecap="butt">
      <path fill="none" d="M286.1766 399.6667 L531.3531 399.6667 L531.3531 414.6667 L546.3531 414.6667 L546.3531 475.5547 L286.1766 475.5547 Z" clip-path="url(#clipPath2)"/>
      <path fill="none" d="M531.3531 399.6667 L531.3531 414.6667 L546.3531 414.6667 Z" clip-path="url(#clipPath2)" fill-rule="evenodd"/>
      <text x="290.4289" xml:space="preserve" y="412.9222" clip-path="url(#clipPath2)" font-family="sans-serif" stroke="none">EX.Cod return aplicatie</text>
      <text x="290.4289" xml:space="preserve" y="427.6234" clip-path="url(#clipPath2)" font-family="sans-serif" stroke="none">{"codEroare":1-succes/0-eroare,</text>
      <text x="290.4289" xml:space="preserve" y="442.3245" clip-path="url(#clipPath2)" font-family="sans-serif" stroke="none">"codOutput":200,</text>
      <text x="290.4289" xml:space="preserve" y="457.0257" clip-path="url(#clipPath2)" font-family="sans-serif" stroke="none">"rezultat":{"Temperatura":12C,"Umiditate":12%}</text>
      <text x="290.4289" xml:space="preserve" y="471.7269" clip-path="url(#clipPath2)" font-family="sans-serif" stroke="none">}</text>
    </g>
    <g text-rendering="geometricPrecision" shape-rendering="geometricPrecision" transform="matrix(1,0,0,1,1022.5531,368.314)">
      <g clip-path="url(#clipPath4)">
        <svg xml:space="preserve" opacity="1" writing-mode="lr-tb" stop-color="rgb(0, 0, 0)" shape-rendering="auto" glyph-orientation-horizontal="0deg" color-profile="auto" lighting-color="rgb(255, 255, 255)" color="rgb(0, 0, 0)" font-weight="400" alignment-baseline="auto" font-style="normal" version="1.1" color-interpolation-filters="linearrgb" text-anchor="start" stroke-linecap="butt" color-interpolation="srgb" font-variant="normal" word-spacing="normal" fill-opacity="1" text-rendering="auto" clip-path="none" text-decoration="none" letter-spacing="normal" viewBox="-0.811 -0.063 65 53" glyph-orientation-vertical="auto" display="inline" font-size-adjust="none" overflow="visible" fill="rgb(0, 0, 0)" font-stretch="normal" stroke-dasharray="none" stroke-miterlimit="4" stop-opacity="1" color-rendering="auto" font-size="12" pointer-events="visiblepainted" mask="none" direction="ltr" baseline-shift="baseline" enable-background="new -0.811 -0.063 65 53" fill-rule="nonzero" image-rendering="auto" stroke-dashoffset="0" width="65px" marker-end="none" clip="auto" cursor="auto" stroke="none" filter="none" visibility="visible" kerning="auto" stroke-width="1" font-family="&quot;Arial&quot;,&quot;Helvetica&quot;,sans-serif" flood-opacity="1" clip-rule="nonzero" src="none" height="53px" unicode-bidi="normal" stroke-linejoin="miter" stroke-opacity="1" flood-color="rgb(0, 0, 0)" dominant-baseline="auto" marker-start="none" x="0px" marker-mid="none" y="0px">
<defs>
</defs>
<linearGradient gradientTransform="matrix(1 0 0 1 -195.2002 -770.8008)" x1="220.9624" x2="220.9624" gradientUnits="userSpaceOnUse" y1="824.415" y2="801.0922" id="svg2.SVGID_1_">
	<stop offset="0.0319" style="stop-color:#808080"/>
	<stop offset="0.1229" style="stop-color:#939393"/>
	<stop offset="0.2702" style="stop-color:#ABABAB"/>
	<stop offset="0.4266" style="stop-color:#BCBCBC"/>
	<stop offset="0.5968" style="stop-color:#C6C6C6"/>
	<stop offset="0.8061" style="stop-color:#C9C9C9"/>
</linearGradient>
<path fill="url(#svg2.SVGID_1_)" d="M51.333,51.918c0.195,0.459-0.053,0.836-0.553,0.836H0.58c-0.5,0-0.604-0.272-0.232-0.605  l8.023-7.191c0.373-0.334,1.086-0.605,1.586-0.605h37.255c0.498,0,1.065,0.377,1.265,0.836L51.333,51.918z"/>
<path stroke-linecap="round" fill="none" stroke-linejoin="round" d="  M51.333,51.918c0.195,0.459-0.053,0.836-0.553,0.836H0.58c-0.5,0-0.604-0.272-0.232-0.605l8.023-7.191  c0.373-0.334,1.086-0.605,1.586-0.605h37.255c0.498,0,1.065,0.377,1.265,0.836L51.333,51.918z" stroke="#8D8D8D" stroke-width="0.25" stroke-miterlimit="10"/>
<path fill="#717171" d="M32.117,50.571c0,0.25-0.205,0.454-0.455,0.454H4.024c-0.25,0-0.304-0.139-0.119-0.307l5.638-5.154  c0.184-0.17,0.539-0.309,0.789-0.309h21.332c0.25,0,0.454,0.205,0.454,0.455L32.117,50.571L32.117,50.571z"/>
<path fill="#717171" d="M40.738,50.598c0.086,0.236,0.359,0.428,0.609,0.428h7.465c0.25,0,0.375-0.188,0.279-0.42l-2.049-4.93  c-0.098-0.229-0.379-0.42-0.629-0.42h-7.17c-0.25,0-0.386,0.191-0.301,0.428L40.738,50.598z"/>
<path fill="#717171" d="M32.89,50.571c0,0.25,0.205,0.454,0.455,0.454h6.135c0.25,0,0.382-0.189,0.293-0.426l-0.156-0.409  c-0.089-0.233-0.365-0.421-0.615-0.416l-1.045,0.021c-0.25,0.004-0.509-0.189-0.574-0.432l-0.021-0.082  c-0.065-0.242-0.321-0.439-0.571-0.439h-1.316c-0.25,0-0.444,0.205-0.432,0.453l0.002,0.059c0.016,0.25-0.181,0.455-0.431,0.459  l-1.269,0.021c-0.25,0.006-0.454,0.211-0.454,0.461L32.89,50.571L32.89,50.571z"/>
<path fill="#717171" d="M32.89,47.004c0,0.25,0.205,0.455,0.455,0.455h4.845c0.25,0,0.396-0.195,0.323-0.437l-0.402-1.333  c-0.07-0.238-0.335-0.438-0.585-0.438h-4.181c-0.25,0-0.455,0.205-0.455,0.455V47.004z"/>
<linearGradient gradientTransform="matrix(1 0 0 -1 -488 -1376.627)" x1="535.2017" x2="511.4634" gradientUnits="userSpaceOnUse" y1="-1418.6563" y2="-1418.6563" id="svg2.SVGID_2_">
	<stop offset="0" style="stop-color:#4D4D4D"/>
	<stop offset="1" style="stop-color:#999999"/>
</linearGradient>
<path fill="url(#svg2.SVGID_2_)" d="M47.048,40.514c0,0.965-6.758,1.404-12.371,1.404c-3.889,0-10.914-0.348-11.367-1.267  c0,0.446,0,1.502,0,1.661c0,0.725,4.803,1.234,11.357,1.234c6.554,0,12.381-0.643,12.381-1.361  C47.048,42.028,47.048,40.977,47.048,40.514z"/>
<path fill="#808080" d="M35.179,39.307c6.556,0,11.869,0.584,11.869,1.307c0,0.721-5.313,1.42-11.869,1.42  c-6.701,0-11.869-0.697-11.869-1.42S28.625,39.307,35.179,39.307z"/>
<linearGradient gradientTransform="matrix(1 0 0 -1 -488 -1376.627)" x1="525.7661" x2="520.77" gradientUnits="userSpaceOnUse" y1="-1412.6865" y2="-1412.6865" id="svg2.SVGID_3_">
	<stop offset="0" style="stop-color:#999999"/>
	<stop offset="0.0417" style="stop-color:#8D8D8D"/>
	<stop offset="0.1617" style="stop-color:#717171"/>
	<stop offset="0.2821" style="stop-color:#5D5D5D"/>
	<stop offset="0.4021" style="stop-color:#515151"/>
	<stop offset="0.5212" style="stop-color:#4D4D4D"/>
	<stop offset="0.6202" style="stop-color:#565656"/>
	<stop offset="0.7817" style="stop-color:#6E6E6E"/>
	<stop offset="0.9844" style="stop-color:#969696"/>
	<stop offset="1" style="stop-color:#999999"/>
</linearGradient>
<path fill="url(#svg2.SVGID_3_)" d="M37.734,40.896c0,0-1.477,0.096-2.498,0.096s-2.499-0.096-2.499-0.096v-9.768h4.997V40.896z"/>
<radialGradient gradientTransform="matrix(1.15 0 0 -1 -453.4719 -1376.627)" id="svg2.SVGID_4_" r="24.0778" cx="415.8687" gradientUnits="userSpaceOnUse" cy="-1386.5146">
	<stop offset="0" style="stop-color:#F2F2F2"/>
	<stop offset="1" style="stop-color:#666666"/>
</radialGradient>
<path fill="url(#svg2.SVGID_4_)" d="M9.453,2.122c0-1.1,0.9-2,2-2h48.246c1.1,0,2,0.9,2,2v30.073c0,1.101-0.9,2-2,2H11.453  c-1.1,0-2-0.899-2-2V2.122z"/>
<path stroke-linecap="round" fill="none" stroke-linejoin="round" d="  M9.453,2.122c0-1.1,0.9-2,2-2h48.246c1.1,0,2,0.9,2,2v30.073c0,1.101-0.9,2-2,2H11.453c-1.1,0-2-0.899-2-2V2.122z" stroke="#666666" stroke-width="0.2436" stroke-miterlimit="10"/>
<radialGradient gradientTransform="matrix(1.1935 0 0 -1 -443.5655 -1376.627)" gradientUnits="userSpaceOnUse" r="53.3339" cx="402.1509" id="svg2.SVGID_5_" cy="-1378.3662" fx="444.1083" fy="-1385.5538">
	<stop offset="0" style="stop-color:#4D4D4D"/>
	<stop offset="1" style="stop-color:#999999"/>
</radialGradient>
<path fill="url(#svg2.SVGID_5_)" d="M10.475,3.143c0-1.1,0.9-2,2-2h46.429c1.1,0,2,0.9,2,2v27.805c0,1.1-0.9,2-2,2H12.475  c-1.1,0-2-0.9-2-2V3.143z"/>
<radialGradient gradientTransform="matrix(1.1923 0 0 -1 -443.8286 -1376.627)" id="svg2.SVGID_6_" r="34.1874" cx="402.939" gradientUnits="userSpaceOnUse" cy="-1378.4502">
	<stop offset="0" style="stop-color:#9CD7FF"/>
	<stop offset="1" style="stop-color:#3C89C9"/>
</radialGradient>
<path fill="url(#svg2.SVGID_6_)" d="M11.043,3.598c0-1.1,0.9-2,2-2h45.294c1.1,0,2,0.9,2,2v26.895c0,1.1-0.9,2-2,2H13.043  c-1.1,0-2-0.9-2-2V3.598z"/>
<path fill="#F2F2F2" opacity="0.24" d="M11.043,24.936V3.598c0-1.1,0.9-2,2-2h45.294c1.1,0,2,0.9,2,2v13.539l-23.164,4.94  c-1.064,0.273-2.836,0.547-3.935,0.609L11.043,24.936z"/>
<path fill="#C9C9C9" d="M58.777,46.596c-0.003-0.002-0.005-0.002-0.007,0c-0.188-0.061-0.429-0.254-0.702-0.482  C58.335,46.268,58.578,46.436,58.777,46.596z"/>
<radialGradient gradientTransform="matrix(1 0 0 1 -390.4004 -1211.6016)" id="svg2.SVGID_7_" r="6.3766" cx="450.8638" gradientUnits="userSpaceOnUse" cy="1259.1514">
	<stop offset="0.1939" style="stop-color:#C9C9C9"/>
	<stop offset="0.3299" style="stop-color:#C6C6C6"/>
	<stop offset="0.4405" style="stop-color:#BCBCBC"/>
	<stop offset="0.5421" style="stop-color:#ABABAB"/>
	<stop offset="0.6378" style="stop-color:#939393"/>
	<stop offset="0.697" style="stop-color:#808080"/>
</radialGradient>
<path fill="url(#svg2.SVGID_7_)" d="M58.77,46.596c0.005,0.002,0.007,0.002,0.009,0.002c0.002,0.004,0.006,0.004,0.006,0.004  c0.084,0.023,0.153,0.021,0.213-0.021c0.017-0.008,0.026-0.021,0.037-0.041c0.604-0.119,1.329-0.154,2.197-0.086  c2.032,1.545,3.77,4.625,1.18,5.801c-2.048,0.929-3.543,0.783-4.722-0.485c-0.624-0.675-1.239-1.47-1.729-2.265  C56.226,48.369,56.855,47.061,58.77,46.596z"/>
<radialGradient gradientTransform="matrix(0.9761 0.2173 -0.1478 0.6641 -320.0412 -1031.1759)" id="svg2.SVGID_8_" r="3.8245" cx="603.5698" gradientUnits="userSpaceOnUse" cy="1426.6348">
	<stop offset="0.1939" style="stop-color:#C9C9C9"/>
	<stop offset="0.3739" style="stop-color:#C6C6C6"/>
	<stop offset="0.5203" style="stop-color:#BCBCBC"/>
	<stop offset="0.6549" style="stop-color:#ABABAB"/>
	<stop offset="0.7816" style="stop-color:#939494"/>
	<stop offset="0.8364" style="stop-color:#868787"/>
</radialGradient>
<path fill="url(#svg2.SVGID_8_)" d="M55.96,49.504c-0.893-1.438-1.355-2.869-0.664-3.533c0.244-0.236,0.539-0.422,0.863-0.559  c0.6,0.051,1.307,0.346,1.9,0.691c0.002,0,0.005,0.004,0.007,0.006c0.272,0.229,0.519,0.426,0.702,0.482  C56.855,47.061,56.226,48.369,55.96,49.504z"/>
<radialGradient gradientTransform="matrix(1 0 0 1 -390.4004 -1211.6016)" id="svg2.SVGID_9_" r="3.928" cx="448.7241" gradientUnits="userSpaceOnUse" cy="1259.3271">
	<stop offset="0.1939" style="stop-color:#C9C9C9"/>
	<stop offset="0.3496" style="stop-color:#C6C6C6"/>
	<stop offset="0.4761" style="stop-color:#BCBCBC"/>
	<stop offset="0.5925" style="stop-color:#ABABAB"/>
	<stop offset="0.702" style="stop-color:#939393"/>
	<stop offset="0.7697" style="stop-color:#808080"/>
</radialGradient>
<path fill="url(#svg2.SVGID_9_)" d="M56.16,45.414c1.353-0.564,3.287-0.266,4.963,0.955c0.035,0.025,0.073,0.055,0.109,0.084  c-0.867-0.068-1.818-0.033-2.427,0.086c-0.109-0.105-0.763-0.449-0.744-0.434C57.464,45.758,56.757,45.463,56.16,45.414z"/>
<path fill="none" stroke-width="0.1136" d="M56.16,45.414  c1.353-0.564,3.287-0.266,4.963,0.955c0.035,0.025,0.073,0.055,0.109,0.084c2.032,1.545,3.77,4.627,1.18,5.801  c-2.048,0.93-3.543,0.785-4.722-0.484c-0.624-0.676-1.239-1.471-1.729-2.264c-0.892-1.438-1.354-2.871-0.664-3.533  C55.541,45.734,55.835,45.549,56.16,45.414z" stroke-miterlimit="10" stroke="#717171" stroke-linecap="round"/>
<path fill="none" stroke-width="0.1136" d="M58.777,46.596  c0.083-0.021,0.168-0.041,0.258-0.057c0.604-0.119,1.329-0.154,2.197-0.086" stroke-miterlimit="10" stroke="#717171" stroke-linecap="round"/>
<path fill="none" stroke-width="0.1136" d="M55.958,49.516  c0-0.002,0.002-0.008,0.002-0.012c0.269-1.135,0.896-2.441,2.813-2.908" stroke-miterlimit="10" stroke="#717171" stroke-linecap="round"/>
<path fill="none" stroke-width="0.1136" d="M58.061,46.105  c-0.597-0.35-1.306-0.643-1.901-0.693" stroke-miterlimit="10" stroke="#717171" stroke-linecap="round"/>
<path fill="none" stroke-width="0.1136" d="M58.779,46.598  c0-0.002,0-0.002-0.002-0.002c-0.199-0.16-0.441-0.328-0.709-0.482" stroke-miterlimit="10" stroke="#717171" stroke-linecap="round"/>
<path fill="#4D4D4D" d="M58.259,45.936c0.354,0.264,0.438,0.48,0.548,0.604c-0.091,0.018-0.173,0.033-0.259,0.059  c-0.355-0.393-0.996-0.666-0.955-0.727C57.688,45.729,58.063,45.791,58.259,45.936z"/>
</svg>
      </g>
    </g>
    <g text-rendering="geometricPrecision" stroke-miterlimit="1.45" stroke-dasharray="6,2" shape-rendering="geometricPrecision" transform="matrix(1,0,0,1,62,103)" stroke-linecap="butt">
      <path fill="none" d="M37 233.0046 L37 177" clip-path="url(#clipPath2)"/>
      <path fill="white" d="M37 162 L31 178 L43 178 Z" clip-path="url(#clipPath2)" stroke="none"/>
      <path fill="none" stroke-dasharray="none" d="M37 162 L31 178 L43 178 Z" clip-path="url(#clipPath2)"/>
      <path fill="none" d="M108 63 L271.1517 63" clip-path="url(#clipPath2)"/>
      <path fill="white" d="M286.1517 63 L270.1517 57 L270.1517 69 Z" clip-path="url(#clipPath2)" stroke="none"/>
      <path fill="none" stroke-dasharray="none" d="M286.1517 63 L270.1517 57 L270.1517 69 Z" clip-path="url(#clipPath2)"/>
      <text x="113.5717" y="49.7904" clip-path="url(#clipPath2)" font-family="sans-serif" stroke-dasharray="none" stroke="none" xml:space="preserve">Apel Oras-&gt;Trimite JSON(EX1)</text>
      <path fill="none" d="M286.18 63 L123 63" clip-path="url(#clipPath2)"/>
      <path fill="white" d="M108 63 L124 69 L124 57 Z" clip-path="url(#clipPath2)" stroke="none"/>
      <path fill="none" stroke-dasharray="none" d="M108 63 L124 69 L124 57 Z" clip-path="url(#clipPath2)"/>
      <path fill="none" d="M696.4266 404.6782 L696.4266 394.8422" clip-path="url(#clipPath2)"/>
      <path fill="white" d="M696.4266 379.8422 L690.4266 395.8422 L702.4266 395.8422 Z" clip-path="url(#clipPath2)" stroke="none"/>
      <path fill="none" stroke-dasharray="none" d="M696.4266 379.8422 L690.4266 395.8422 L702.4266 395.8422 Z" clip-path="url(#clipPath2)"/>
      <path fill="none" d="M742.1766 91 L742.1766 122" clip-path="url(#clipPath2)"/>
      <path fill="white" d="M742.1766 137 L748.1766 121 L736.1766 121 Z" clip-path="url(#clipPath2)" stroke="none"/>
      <path fill="none" stroke-dasharray="none" d="M742.1766 137 L748.1766 121 L736.1766 121 Z" clip-path="url(#clipPath2)"/>
      <path fill="none" d="M917.3779 152 L858.188 152" clip-path="url(#clipPath2)"/>
      <path fill="white" d="M843.188 152 L859.188 158 L859.188 146 Z" clip-path="url(#clipPath2)" stroke="none"/>
      <path fill="none" stroke-dasharray="none" d="M843.188 152 L859.188 158 L859.188 146 Z" clip-path="url(#clipPath2)"/>
      <path fill="none" d="M641.1818 40.8345 L588.1843 39.5459" clip-path="url(#clipPath2)"/>
      <path fill="white" d="M573.1887 39.1813 L589.0381 45.5685 L589.3298 33.572 Z" clip-path="url(#clipPath2)" stroke="none"/>
      <path fill="none" stroke-dasharray="none" d="M573.1887 39.1813 L589.0381 45.5685 L589.3298 33.572 Z" clip-path="url(#clipPath2)"/>
      <path fill="none" d="M641.1609 143.9903 L587.4474 126.6022" clip-path="url(#clipPath2)"/>
      <path fill="white" d="M573.1766 121.9825 L586.551 132.6185 L590.2468 121.2019 Z" clip-path="url(#clipPath2)" stroke="none"/>
      <path fill="none" stroke-dasharray="none" d="M573.1766 121.9825 L586.551 132.6185 L590.2468 121.2019 Z" clip-path="url(#clipPath2)"/>
      <path fill="none" d="M573.1939 39.8959 L626.1422 39.6213" clip-path="url(#clipPath2)"/>
      <path fill="white" d="M641.142 39.5435 L625.1111 33.6266 L625.1733 45.6264 Z" clip-path="url(#clipPath2)" stroke="none"/>
      <path fill="none" stroke-dasharray="none" d="M641.142 39.5435 L625.1111 33.6266 L625.1733 45.6264 Z" clip-path="url(#clipPath2)"/>
      <path fill="none" d="M573.1766 121.3125 L626.8436 138.4296" clip-path="url(#clipPath2)"/>
      <path fill="white" d="M641.1343 142.9877 L627.7141 132.4095 L624.0677 143.8421 Z" clip-path="url(#clipPath2)" stroke="none"/>
      <path fill="none" stroke-dasharray="none" d="M641.1343 142.9877 L627.7141 132.4095 L624.0677 143.8421 Z" clip-path="url(#clipPath2)"/>
      <path fill="none" d="M432.6766 187 L432.6766 212" clip-path="url(#clipPath2)"/>
      <path fill="white" d="M432.6766 227 L438.6766 211 L426.6766 211 Z" clip-path="url(#clipPath2)" stroke="none"/>
      <path fill="none" stroke-dasharray="none" d="M432.6766 227 L438.6766 211 L426.6766 211 Z" clip-path="url(#clipPath2)"/>
      <path fill="none" d="M432.6766 227 L432.6766 202" clip-path="url(#clipPath2)"/>
      <path fill="white" d="M432.6766 187 L426.6766 203 L438.6766 203 Z" clip-path="url(#clipPath2)" stroke="none"/>
      <path fill="none" stroke-dasharray="none" d="M432.6766 187 L426.6766 203 L438.6766 203 Z" clip-path="url(#clipPath2)"/>
      <path fill="none" d="M573.1766 179.837 L611.6208 208.1126" clip-path="url(#clipPath2)"/>
      <path fill="white" d="M623.7044 217 L614.3702 202.6866 L607.2603 212.3535 Z" clip-path="url(#clipPath2)" stroke="none"/>
      <path fill="none" stroke-dasharray="none" d="M623.7044 217 L614.3702 202.6866 L607.2603 212.3535 Z" clip-path="url(#clipPath2)"/>
      <path fill="none" d="M623.7044 217 L585.2602 188.7245" clip-path="url(#clipPath2)"/>
      <path fill="white" d="M573.1766 179.837 L582.5108 194.1504 L589.6207 184.4835 Z" clip-path="url(#clipPath2)" stroke="none"/>
      <path fill="none" stroke-dasharray="none" d="M573.1766 179.837 L582.5108 194.1504 L589.6207 184.4835 Z" clip-path="url(#clipPath2)"/>
      <path fill="none" d="M553.4266 332.1667 L582.2125 332.1667" clip-path="url(#clipPath2)"/>
      <path fill="white" d="M597.2125 332.1667 L581.2125 326.1667 L581.2125 338.1667 Z" clip-path="url(#clipPath2)" stroke="none"/>
      <path fill="none" stroke-dasharray="none" d="M597.2125 332.1667 L581.2125 326.1667 L581.2125 338.1667 Z" clip-path="url(#clipPath2)"/>
      <path fill="none" d="M865.1448 -36.1667 L939.2448 -36.1667" clip-path="url(#clipPath2)"/>
      <path fill="white" d="M954.2448 -36.1667 L938.2448 -42.1667 L938.2448 -30.1667 Z" clip-path="url(#clipPath2)" stroke="none"/>
      <path fill="none" stroke-dasharray="none" d="M954.2448 -36.1667 L938.2448 -42.1667 L938.2448 -30.1667 Z" clip-path="url(#clipPath2)"/>
      <path fill="none" stroke-dasharray="none" d="M286.1695 405.6833 L285.75 404.9427 L279.7812 392.1107 L275.25 379.5208 L272.1562 367.1732 L270.5 355.0677 L270.2812 343.2044 L271.5 331.5833 L274.1562 320.2044 L278.25 309.0677 L283.7812 298.1732 L290.75 287.5208 L299.1562 277.1107 L309 266.9427 L320.2812 257.0169 L321.5424 256.0567" clip-path="url(#clipPath2)"/>
      <path stroke-dasharray="none" d="M327.9075 251.2106 L315.331 254.5016 L320.7468 256.6625 L321.3887 262.458 Z" clip-path="url(#clipPath2)" stroke="none"/>
      <path fill="none" d="M854.1766 292 L954.3347 292" clip-path="url(#clipPath2)"/>
      <path fill="white" d="M969.3347 292 L953.3347 286 L953.3347 298 Z" clip-path="url(#clipPath2)" stroke="none"/>
      <path fill="none" stroke-dasharray="none" d="M969.3347 292 L953.3347 286 L953.3347 298 Z" clip-path="url(#clipPath2)"/>
      <path fill="none" d="M969.3718 292 L869.163 292" clip-path="url(#clipPath2)"/>
      <path fill="white" d="M854.163 292 L870.163 298 L870.163 286 Z" clip-path="url(#clipPath2)" stroke="none"/>
      <path fill="none" stroke-dasharray="none" d="M854.163 292 L870.163 298 L870.163 286 Z" clip-path="url(#clipPath2)"/>
    </g>
  </g>
</svg>
